<svg width="1200" height="1500" viewBox="0 0 1200 1500" fill="none" xmlns="http://www.w3.org/2000/svg">
  <rect width="1200" height="1500" fill="#111111"/>
  <circle cx="600" cy="496" r="196" fill="#7A0D17"/>
  <circle cx="600" cy="470" r="148" fill="#F7F2EC"/>
  <path d="M301 1308C330 962 437 790 600 790C763 790 870 962 899 1308H301Z" fill="#B11226"/>
  <path d="M345 1298C371 1018 456 880 600 880C744 880 829 1018 855 1298H345Z" fill="#070707"/>
  <path d="M268 220C333 110 444 55 601 55C758 55 870 111 936 223" stroke="#E12B3F" stroke-width="10" stroke-linecap="round"/>
  <path d="M220 1263C422 1376 778 1376 980 1263" stroke="#74E0D1" stroke-width="8" stroke-linecap="round" opacity="0.7"/>
  <text x="600" y="1460" text-anchor="middle" fill="#F7F2EC" font-family="Arial, sans-serif" font-size="42" letter-spacing="8">REPLACE PHOTO</text>
</svg>
